<svg width="22" height="26" viewBox="0 0 22 26" fill="none" xmlns="http://www.w3.org/2000/svg">
<path fill-rule="evenodd" clip-rule="evenodd" d="M14.7184 1.49073L6.8426 9.34999C6.54168 9.6509 6.13601 9.8185 5.7113 9.8185H1.58989L9.43073 1.97814L7.36259 0.221344H11.1876H15.9709L14.706 1.48626L14.7184 1.49073ZM13.2197 4.27506H21.732L20.9883 5.01876L21.0065 5.0157L6.00636 20.0158C5.62165 20.4005 5.11695 20.6367 4.60653 20.6729L0.268005 20.97L15.2243 6.01374L13.2197 4.27506ZM19.1538 16.8814L11.278 24.7406C10.977 25.0415 10.5714 25.2091 10.1467 25.2091H6.02525L13.8661 17.3688L11.798 15.612H15.623H20.4063L19.1414 16.8769L19.1538 16.8814Z" fill="url(#paint0_linear_629_3722)"/>
<defs>
<linearGradient id="paint0_linear_629_3722" x1="11" y1="0.221344" x2="11" y2="25.2091" gradientUnits="userSpaceOnUse">
<stop stop-color="#0048FF"/>
<stop offset="1" stop-color="#A9C1FF"/>
</linearGradient>
</defs>
</svg>
